<svg xmlns="http://www.w3.org/2000/svg" width="24" height="24" fill="currentColor" class="bi bi-sun" viewBox="0 0 16 16">
  <path d="M8 4.5a3.5 3.5 0 1 0 0 7 3.5 3.5 0 0 0 0-7zM8 0a.5.5 0 0 1 .5.5v1a.5.5 0 0 1-1 0v-1A.5.5 0 0 1 8 0zm0 13.5a.5.5 0 0 1 .5.5v1a.5.5 0 0 1-1 0v-1a.5.5 0 0 1 .5-.5zM16 8a.5.5 0 0 1-.5.5h-1a.5.5 0 0 1 0-1h1A.5.5 0 0 1 16 8zM2.5 8a.5.5 0 0 1-.5-.5H1a.5.5 0 0 1 0-1h1a.5.5 0 0 1 .5.5zM11.657 4.343a.5.5 0 0 1 .707 0l.707.707a.5.5 0 1 1-.707.707l-.707-.707a.5.5 0 0 1 0-.707zm-7.071 7.071a.5.5 0 0 1 .707 0l.707.707a.5.5 0 1 1-.707.707l-.707-.707a.5.5 0 0 1 0-.707zM4.343 4.343a.5.5 0 0 1 0 .707L3.636 5.757a.5.5 0 0 1-.707-.707l.707-.707a.5.5 0 0 1 .707 0zm7.071 7.071a.5.5 0 0 1 0 .707l-.707.707a.5.5 0 1 1-.707-.707l.707-.707a.5.5 0 0 1 .707 0z"></path>
</svg>
